# xmcd CD database file
#
# Track frame offsets:
#	150
#	29731
#	58578
#	89395
#	118673
#	140877
#	183349
#	213621
#	244055
#	265351
#	286335
#
# Disc length: 3993 seconds
#
# Revision: 0
# Processed by: cddbd v1.5.1PL0 Copyright (c) Steve Scherf et al.
# Submitted via: CDex 1.51
#
DISCID=b00f970b
DTITLE=Mark Colby - Speaking of Stan
DYEAR=2005
DGENRE=Jazz
TTITLE0=When it Matters
TTITLE1=Only Trust Your Heart
TTITLE2=How Deep is the Ocean
TTITLE3=Sometime Ago
TTITLE4=What is a Buddha?
TTITLE5=Sea Journey
TTITLE6=Out of Focus
TTITLE7=Give and Take
TTITLE8=Blue Getz Blues
TTITLE9=Goodbye
TTITLE10=Speaking of Stan
EXTD=YEAR: 2005
EXTT0=
EXTT1=
EXTT2=
EXTT3=
EXTT4=
EXTT5=
EXTT6=
EXTT7=
EXTT8=
EXTT9=
EXTT10=
PLAYORDER=
